<mxfile host="app.diagrams.net" modified="2023-11-26T11:18:55.623Z" agent="Mozilla/5.0 (Windows NT 10.0; Win64; x64) AppleWebKit/537.36 (KHTML, like Gecko) Chrome/116.0.5845.664 YaBrowser/23.9.5.664 Yowser/2.5 Safari/537.36" version="22.1.4" etag="VnmHU6W8BjP3qYDx5hqr" type="github">
  <diagram name="Страница — 1" id="yMmEk63G5wUTri25HnyO">
    <mxGraphModel>
      <root>
        <mxCell id="0" />
        <mxCell id="1" parent="0" />
      </root>
    </mxGraphModel>
  </diagram>
</mxfile>
